<?xml version="1.0" encoding="UTF-8" standalone="no"?>
<!DOCTYPE svg PUBLIC "-//W3C//DTD SVG 1.1//EN" "http://www.w3.org/Graphics/SVG/1.1/DTD/svg11.dtd">
<svg width="100%" height="100%" viewBox="0 0 256 256" version="1.1" xmlns="http://www.w3.org/2000/svg" xmlns:xlink="http://www.w3.org/1999/xlink" xml:space="preserve" xmlns:serif="http://www.serif.com/" style="fill-rule:evenodd;clip-rule:evenodd;stroke-linejoin:round;stroke-miterlimit:2;">
    <g transform="matrix(0.700174,0,0,0.700174,-414.334772,-237.808481)">
        <path d="M874.89,400.12C864.985,400.131 856.836,408.275 856.82,418.18L856.82,504.57C856.82,506.764 855.014,508.57 852.82,508.57C850.626,508.57 848.82,506.764 848.82,504.57L848.82,375.72C848.809,364.105 839.255,354.551 827.64,354.54C821.904,354.461 816.378,356.735 812.36,360.83C808.519,364.871 806.401,370.255 806.46,375.83L806.46,504.57C806.46,506.764 804.654,508.57 802.46,508.57C800.266,508.57 798.46,506.764 798.46,504.57L798.46,377.4C798.444,364.866 788.134,354.556 775.6,354.54C761.29,354.54 752.74,366.9 752.74,378.84L752.74,504.57C752.74,506.764 750.934,508.57 748.74,508.57C746.546,508.57 744.74,506.764 744.74,504.57L744.74,401.57C744.729,389.955 735.175,380.401 723.56,380.39C710.3,380.39 702.38,391.84 702.38,402.92L702.38,559.21L749.38,559.21C768.132,559.206 785.983,567.38 798.23,581.58C799.664,583.24 799.479,585.785 797.82,587.22C796.16,588.654 793.615,588.469 792.18,586.81C781.449,574.369 765.809,567.207 749.38,567.21L698.38,567.21C698.203,567.204 698.026,567.187 697.85,567.16L697.64,567.16C697.312,567.09 696.994,566.982 696.69,566.84L696.48,566.73C696.217,566.584 695.97,566.414 695.74,566.22L695.64,566.14L675.81,547.51C661.08,533.557 637.587,533.883 623.25,548.24C619.505,551.936 619.371,558.023 622.95,561.88L698.06,643.37C728.19,676.77 758.81,690.37 803.75,690.37C852.94,690.37 892.96,649.94 892.96,600.23L892.96,419.07C893,409.88 886.63,400.12 874.89,400.12Z" style="fill:rgb(0,223,186);fill-rule:nonzero;"/>
    </g>
</svg>
