<?xml version="1.0" encoding="UTF-8" standalone="no"?>
<!DOCTYPE svg PUBLIC "-//W3C//DTD SVG 1.1//EN" "http://www.w3.org/Graphics/SVG/1.1/DTD/svg11.dtd">
<svg width="100%" height="100%" viewBox="0 0 256 256" version="1.1" xmlns="http://www.w3.org/2000/svg" xmlns:xlink="http://www.w3.org/1999/xlink" xml:space="preserve" xmlns:serif="http://www.serif.com/" style="fill-rule:evenodd;clip-rule:evenodd;stroke-linejoin:round;stroke-miterlimit:2;">
    <g transform="matrix(0.661672,0,0,0.661672,-92.244018,-243.660954)">
        <path d="M394.37,513.1L394.37,459.7C394.37,445.113 382.367,433.11 367.78,433.11C353.193,433.11 341.19,445.113 341.19,459.7L341.19,511.63L388.09,511.63C390.268,511.634 392.416,512.137 394.37,513.1Z" style="fill:rgb(254,43,241);fill-rule:nonzero;"/>
    </g>
    <g transform="matrix(0.661672,0,0,0.661672,-92.244018,-243.660954)">
        <path d="M271.35,511.63L271.35,457.68C271.35,445.49 261.32,435.46 249.13,435.46C236.94,435.46 226.91,445.49 226.91,457.68L226.91,524.16C236.928,516.046 249.438,511.62 262.33,511.63L271.35,511.63Z" style="fill:rgb(254,43,241);fill-rule:nonzero;"/>
    </g>
    <g transform="matrix(0.661672,0,0,0.661672,-92.244018,-243.660954)">
        <path d="M427.1,567.16C415.432,567.149 404.62,560.897 398.79,550.79C391.247,569.528 372.989,581.876 352.79,581.9L319.55,581.9C335.796,591.803 345.741,609.504 345.75,628.53L345.75,643.53C345.75,645.724 343.944,647.53 341.75,647.53C339.556,647.53 337.75,645.724 337.75,643.53L337.75,628.53C337.717,602.962 316.688,581.933 291.12,581.9L290.41,581.9C288.216,581.9 286.41,580.094 286.41,577.9C286.41,575.706 288.216,573.9 290.41,573.9L352.8,573.9C375.593,573.878 394.343,555.133 394.37,532.34L394.37,525.91C394.37,522.465 391.535,519.63 388.09,519.63L262.33,519.63C248.105,519.631 234.58,525.903 225.39,536.76C224.72,537.55 224.06,538.35 223.45,539.18C223.19,539.52 222.95,539.87 222.71,540.18C222.1,541.04 221.51,541.91 220.96,542.81C220.78,543.1 220.61,543.4 220.44,543.7C219.88,544.7 219.35,545.64 218.85,546.63L218.61,547.12C218.05,548.28 217.55,549.46 217.09,550.66C217.03,550.82 216.96,550.97 216.9,551.13C216.45,552.34 216.05,553.58 215.69,554.83C215.69,554.99 215.6,555.15 215.56,555.31C215.21,556.57 214.92,557.84 214.68,559.12L214.59,559.62C214.36,560.91 214.18,562.22 214.06,563.53L214.06,563.99C213.95,565.35 213.88,566.71 213.88,568.08C213.88,571.38 214.04,574.63 214.3,577.86C219.3,640.71 272.01,690.32 336.12,690.32L350.66,690.32C406.131,690.238 451.752,644.621 451.84,589.15L451.84,555.81C445.642,563.01 436.6,567.158 427.1,567.16Z" style="fill:rgb(254,43,241);fill-rule:nonzero;"/>
    </g>
    <g transform="matrix(0.661672,0,0,0.661672,-92.244018,-243.660954)">
        <path d="M333.19,460C333.19,445.232 321.038,433.08 306.27,433.08C291.502,433.08 279.35,445.232 279.35,460L279.35,511.6L333.19,511.6L333.19,460Z" style="fill:rgb(254,43,241);fill-rule:nonzero;"/>
    </g>
    <g transform="matrix(0.661672,0,0,0.661672,-92.244018,-243.660954)">
        <path d="M427.1,472.09C413.536,472.106 402.381,483.266 402.37,496.83L402.37,534.43C402.639,547.811 413.721,558.673 427.105,558.673C440.489,558.673 451.571,547.811 451.84,534.43L451.84,496.83C451.824,483.264 440.666,472.106 427.1,472.09Z" style="fill:rgb(254,43,241);fill-rule:nonzero;"/>
    </g>
</svg>
